<svg width="1848" height="2603" viewBox="0 0 1848 2603" fill="none" xmlns="http://www.w3.org/2000/svg">
<g id="ligh">
<circle id="Ellipse 1" cx="975" cy="2353" r="235" stroke="white" stroke-width="30"/>
<circle id="Ellipse 2" cx="975" cy="2353" r="165" stroke="#FC2947" stroke-width="30"/>
<path id="Ellipse 3" d="M1090 2353C1090 2337.9 1087.03 2322.94 1081.25 2308.99C1075.47 2295.04 1067 2282.36 1056.32 2271.68C1045.64 2261 1032.96 2252.53 1019.01 2246.75C1005.06 2240.97 990.102 2238 975 2238C959.898 2238 944.944 2240.97 930.991 2246.75C917.039 2252.53 904.361 2261 893.683 2271.68C883.004 2282.36 874.533 2295.04 868.754 2308.99C862.975 2322.94 860 2337.9 860 2353L975 2353H1090Z" fill="#FC2947"/>
<path id="Ellipse 4" d="M860 2353C860 2368.1 862.975 2383.06 868.754 2397.01C874.533 2410.96 883.004 2423.64 893.683 2434.32C904.361 2445 917.039 2453.47 930.991 2459.25C944.944 2465.03 959.898 2468 975 2468C990.102 2468 1005.06 2465.03 1019.01 2459.25C1032.96 2453.47 1045.64 2445 1056.32 2434.32C1067 2423.64 1075.47 2410.96 1081.25 2397.01C1087.03 2383.06 1090 2368.1 1090 2353H975L860 2353Z" fill="white"/>
<path id="&#226;&#156;&#166;" d="M972.491 2408.3C970.241 2395.4 961.091 2379.2 943.691 2366.15C935.141 2359.7 926.441 2355.5 917.891 2353.7V2347.4C934.841 2343.35 951.491 2331.95 962.141 2316.5C967.541 2308.7 970.991 2301.05 972.491 2293.1H978.791C981.341 2308.25 993.041 2325.05 1008.94 2336.3C1016.74 2341.85 1024.84 2345.6 1033.09 2347.4V2353.7C1016.44 2357.15 997.091 2372 987.491 2387.15C982.691 2394.8 979.841 2401.85 978.791 2408.3H972.491Z" fill="#FC2947"/>
<path id="&#226;&#156;&#166;_2" d="M1349.49 2194.3C1347.24 2181.4 1338.09 2165.2 1320.69 2152.15C1312.14 2145.7 1303.44 2141.5 1294.89 2139.7V2133.4C1311.84 2129.35 1328.49 2117.95 1339.14 2102.5C1344.54 2094.7 1347.99 2087.05 1349.49 2079.1H1355.79C1358.34 2094.25 1370.04 2111.05 1385.94 2122.3C1393.74 2127.85 1401.84 2131.6 1410.09 2133.4V2139.7C1393.44 2143.15 1374.09 2158 1364.49 2173.15C1359.69 2180.8 1356.84 2187.85 1355.79 2194.3H1349.49Z" fill="#FC2947"/>
<path id="&#226;&#156;&#166;_3" d="M547.491 2241.3C545.241 2228.4 536.091 2212.2 518.691 2199.15C510.141 2192.7 501.441 2188.5 492.891 2186.7V2180.4C509.841 2176.35 526.491 2164.95 537.141 2149.5C542.541 2141.7 545.991 2134.05 547.491 2126.1H553.791C556.341 2141.25 568.041 2158.05 583.941 2169.3C591.741 2174.85 599.841 2178.6 608.091 2180.4V2186.7C591.441 2190.15 572.091 2205 562.491 2220.15C557.691 2227.8 554.841 2234.85 553.791 2241.3H547.491Z" fill="#FC2947"/>
<path id="&#226;&#156;&#166;_4" d="M759.491 1366.3C757.241 1353.4 748.091 1337.2 730.691 1324.15C722.141 1317.7 713.441 1313.5 704.891 1311.7V1305.4C721.841 1301.35 738.491 1289.95 749.141 1274.5C754.541 1266.7 757.991 1259.05 759.491 1251.1H765.791C768.341 1266.25 780.041 1283.05 795.941 1294.3C803.741 1299.85 811.841 1303.6 820.091 1305.4V1311.7C803.441 1315.15 784.091 1330 774.491 1345.15C769.691 1352.8 766.841 1359.85 765.791 1366.3H759.491Z" fill="#28FFBF"/>
<path id="&#226;&#156;&#166;_5" d="M62.4912 1877.3C60.2412 1864.4 51.0912 1848.2 33.6912 1835.15C25.1412 1828.7 16.4412 1824.5 7.89121 1822.7V1816.4C24.8412 1812.35 41.4912 1800.95 52.1412 1785.5C57.5412 1777.7 60.9912 1770.05 62.4912 1762.1H68.7912C71.3412 1777.25 83.0412 1794.05 98.9412 1805.3C106.741 1810.85 114.841 1814.6 123.091 1816.4V1822.7C106.441 1826.15 87.0912 1841 77.4912 1856.15C72.6912 1863.8 69.8412 1870.85 68.7912 1877.3H62.4912Z" fill="#28FFBF"/>
<path id="&#226;&#156;&#166;_6" d="M127.491 1127.3C125.241 1114.4 116.091 1098.2 98.6912 1085.15C90.1412 1078.7 81.4412 1074.5 72.8912 1072.7V1066.4C89.8412 1062.35 106.491 1050.95 117.141 1035.5C122.541 1027.7 125.991 1020.05 127.491 1012.1H133.791C136.341 1027.25 148.041 1044.05 163.941 1055.3C171.741 1060.85 179.841 1064.6 188.091 1066.4V1072.7C171.441 1076.15 152.091 1091 142.491 1106.15C137.691 1113.8 134.841 1120.85 133.791 1127.3H127.491Z" fill="#28FFBF"/>
<path id="Rectangle 2" d="M901 1986.5C901 1945.35 934.355 1912 975.5 1912C1016.65 1912 1050 1945.35 1050 1986.5V2081H901V1986.5Z" fill="white"/>
<path id="Line 1" d="M975.497 1890L974.845 9.99997" stroke="white" stroke-width="20" stroke-linecap="round"/>
<circle id="Ellipse 5" cx="475" cy="1691" r="235" stroke="#28FFBF" stroke-width="30"/>
<circle id="Ellipse 6" cx="475" cy="1691" r="165" stroke="white" stroke-width="30"/>
<circle id="Ellipse 7" cx="475" cy="1691" r="115" fill="#28FFBF"/>
<path id="&#226;&#156;&#166;_7" d="M472.491 1750.3C470.241 1737.4 461.091 1721.2 443.691 1708.15C435.141 1701.7 426.441 1697.5 417.891 1695.7V1689.4C434.841 1685.35 451.491 1673.95 462.141 1658.5C467.541 1650.7 470.991 1643.05 472.491 1635.1H478.791C481.341 1650.25 493.041 1667.05 508.941 1678.3C516.741 1683.85 524.841 1687.6 533.091 1689.4V1695.7C516.441 1699.15 497.091 1714 487.491 1729.15C482.691 1736.8 479.841 1743.85 478.791 1750.3H472.491Z" fill="white"/>
<path id="Rectangle 3" d="M401 1324.5C401 1283.36 434.355 1250 475.5 1250C516.645 1250 550 1283.36 550 1324.5V1419H401V1324.5Z" fill="white"/>
<path id="Line 2" d="M475 1228L475 10" stroke="white" stroke-width="20" stroke-linecap="round"/>
<path id="&#226;&#156;&#166;_8" d="M1714.49 1969.3C1712.24 1956.4 1703.09 1940.2 1685.69 1927.15C1677.14 1920.7 1668.44 1916.5 1659.89 1914.7V1908.4C1676.84 1904.35 1693.49 1892.95 1704.14 1877.5C1709.54 1869.7 1712.99 1862.05 1714.49 1854.1H1720.79C1723.34 1869.25 1735.04 1886.05 1750.94 1897.3C1758.74 1902.85 1766.84 1906.6 1775.09 1908.4V1914.7C1758.44 1918.15 1739.09 1933 1729.49 1948.15C1724.69 1955.8 1721.84 1962.85 1720.79 1969.3H1714.49Z" fill="#FC997C"/>
<path id="&#226;&#156;&#166;_9" d="M1214.49 1789.3C1212.24 1776.4 1203.09 1760.2 1185.69 1747.15C1177.14 1740.7 1168.44 1736.5 1159.89 1734.7V1728.4C1176.84 1724.35 1193.49 1712.95 1204.14 1697.5C1209.54 1689.7 1212.99 1682.05 1214.49 1674.1H1220.79C1223.34 1689.25 1235.04 1706.05 1250.94 1717.3C1258.74 1722.85 1266.84 1726.6 1275.09 1728.4V1734.7C1258.44 1738.15 1239.09 1753 1229.49 1768.15C1224.69 1775.8 1221.84 1782.85 1220.79 1789.3H1214.49Z" fill="#FC997C"/>
<path id="&#226;&#156;&#166;_10" d="M1779.49 1144.3C1777.24 1131.4 1768.09 1115.2 1750.69 1102.15C1742.14 1095.7 1733.44 1091.5 1724.89 1089.7V1083.4C1741.84 1079.35 1758.49 1067.95 1769.14 1052.5C1774.54 1044.7 1777.99 1037.05 1779.49 1029.1H1785.79C1788.34 1044.25 1800.04 1061.05 1815.94 1072.3C1823.74 1077.85 1831.84 1081.6 1840.09 1083.4V1089.7C1823.44 1093.15 1804.09 1108 1794.49 1123.15C1789.69 1130.8 1786.84 1137.85 1785.79 1144.3H1779.49Z" fill="#FC997C"/>
<path id="Ellipse 8" d="M1652 1362C1652 1295.7 1625.66 1232.11 1578.78 1185.22C1531.89 1138.34 1468.3 1112 1402 1112C1335.7 1112 1272.11 1138.34 1225.22 1185.22C1178.34 1232.11 1152 1295.7 1152 1362L1402 1362H1652Z" fill="#FC997C"/>
<circle id="Ellipse 11" cx="1402" cy="1362" r="235" stroke="#FC997C" stroke-width="30"/>
<circle id="Ellipse 9" cx="1402" cy="1362" r="165" stroke="white" stroke-width="30"/>
<path id="Ellipse 10" d="M1287 1362C1287 1392.5 1299.12 1421.75 1320.68 1443.32C1342.25 1464.88 1371.5 1477 1402 1477C1432.5 1477 1461.75 1464.88 1483.32 1443.32C1504.88 1421.75 1517 1392.5 1517 1362L1402 1362L1287 1362Z" fill="white"/>
<path id="&#226;&#156;&#166;_11" d="M1399.49 1421.3C1397.24 1408.4 1388.09 1392.2 1370.69 1379.15C1362.14 1372.7 1353.44 1368.5 1344.89 1366.7V1360.4C1361.84 1356.35 1378.49 1344.95 1389.14 1329.5C1394.54 1321.7 1397.99 1314.05 1399.49 1306.1H1405.79C1408.34 1321.25 1420.04 1338.05 1435.94 1349.3C1443.74 1354.85 1451.84 1358.6 1460.09 1360.4V1366.7C1443.44 1370.15 1424.09 1385 1414.49 1400.15C1409.69 1407.8 1406.84 1414.85 1405.79 1421.3H1399.49Z" fill="white"/>
<path id="Rectangle 4" d="M1328 995.5C1328 954.355 1361.35 921 1402.5 921C1443.65 921 1477 954.355 1477 995.5V1090H1328V995.5Z" fill="white"/>
<path id="Line 3" d="M1402 899V9.99998" stroke="white" stroke-width="20" stroke-linecap="round"/>
</g>
</svg>
